# xmcd
#
# Track frame offsets: 
#        150
#        14746
#        30756
#        47998
#        73859
#
# Disc length: 1604 seconds
#
# Revision: 2
# Processed by: cddbd v1.5.2PL0 Copyright (c) Steve Scherf et al.
# Submitted via: ExactAudioCopy v0.90b3
#
DISCID=3e064205
DTITLE=JIMMY SOMERVILLE =Ain`t No Mountain High Enough
DYEAR=2004
DGENRE=Pop
TTITLE0=Ain't No Mountain High Enough {original Radio version} [2004]
TTITLE1=Ain't No Mountain High Enough {Mainstream version - Radio Only
TTITLE1=} [2004]
TTITLE2=Ain't No Mountain High Enough [2004]
TTITLE3=Ain't No Mountain High Enough {BMR remix (Boris Dlugosch and Mic
TTITLE3=hi Lange)} [2004]
TTITLE4=Ain't No Mountain High Enough {Björn Wilke's Deep Valley mix} 
TTITLE4=[2004]
EXTD=
EXTT0=
EXTT1=
EXTT2=
EXTT3=
EXTT4=
PLAYORDER=
